<svg width="1200" height="234" viewBox="0 0 1200 234" fill="none" xmlns="http://www.w3.org/2000/svg">
<g clip-path="url(#clip0_10729_41324)">
<path fill-rule="evenodd" clip-rule="evenodd" d="M1195.89 85.1721L1142.41 166.4L1059.59 166.279L1053.17 176.026C1048.89 183.235 1052.58 187.407 1066.38 187.428C1079.5 187.447 1090.3 183.837 1094.58 176.086L1098.21 172.838L1138.13 172.898L1118.87 202.14C1107.1 220.01 1074.39 232.972 1037.06 232.917C998.473 232.861 982.875 219.828 994.641 201.958L1071.66 84.9897C1083.82 67.1195 1116.14 54.1583 1154.1 54.2129C1192.06 54.2693 1208.9 67.3019 1195.89 85.1721ZM1124.15 101.192C1110.35 99.6812 1100.24 104.545 1095.96 111.687L1089.54 120.79L1130.95 120.851L1137.37 112.289C1141.65 104.605 1137.26 100.025 1124.15 101.192ZM859.126 229.403L944.911 57.1583L986.322 57.2204L926.556 174.215L933.456 174.224L1027.73 57.2806L1069.14 57.3408L928.143 229.844L859.126 229.403ZM812.219 229.332L770.539 229.272L773.683 222.773C763.572 228.094 746.559 232.49 729.304 232.466C705.148 232.43 688.722 225.901 701.559 206.406L739 149.547C751.837 130.052 777.272 128.788 810.259 125.259L840.007 122.051L847.495 110.679C851.774 104.18 848.082 99.2956 834.278 99.2768C821.164 99.2561 810.362 104.12 806.083 110.619L802.875 115.492L761.463 115.43L781.79 84.5646C793.557 66.6944 826.271 53.7333 864.231 53.7878C902.189 53.8442 917.787 66.8768 906.02 85.7119L812.219 229.332ZM782.633 168.395C771.949 168.783 765.434 172.351 762.225 177.224C759.016 182.099 762.709 186.982 776.512 187.003C790.314 187.024 800.426 182.16 804.705 175.661L812.193 164.289L782.633 168.395ZM589.959 229.008L653.176 112.02L646.275 112.008L555.449 228.958L489.883 228.862L592.922 56.643L630.882 56.6975L560.762 173.677L567.665 173.686L660.131 56.7389L713.702 56.8198L650.486 173.808L657.387 173.818L741.31 56.8593L779.27 56.9157L655.525 229.104L589.959 229.008ZM415.504 228.751L418.243 222.252C408.133 227.114 391.12 231.969 373.865 231.943C349.709 231.907 333.283 225.378 346.476 205.885L429.558 80.7088C442.395 59.6731 467.381 53.2047 491.537 53.2405C508.79 53.2668 519.385 58.1609 523.077 63.0436L563.727 1.31132L605.138 1.3715L455.375 228.811L415.504 228.751ZM485.636 119.904C489.915 113.406 486.223 108.521 472.42 108.501C459.306 108.482 448.504 113.346 444.225 119.842L414.274 165.331C409.995 171.83 414.378 176.714 427.491 176.733C441.295 176.754 451.404 171.89 455.683 165.392L485.636 119.904ZM272.478 228.542L422.241 1.10254L463.653 1.16273L313.89 228.602L272.478 228.542ZM273.409 200.899C261.643 218.769 228.929 231.73 190.969 231.676C153.009 231.619 138.376 218.587 149.178 200.716L226.199 83.7483C237.966 66.3013 270.68 52.917 310.231 52.9734C346.6 53.0279 362.198 66.0605 350.431 83.9308L273.409 200.899ZM272.27 108.207C258.466 108.187 249.065 113.051 244.075 119.549L214.122 165.038C209.843 171.535 213.537 176.419 227.339 176.44C241.143 176.461 251.255 171.597 255.534 165.098L285.487 119.611C290.764 113.113 287.699 108.228 272.27 108.207ZM176.612 127.58L135.201 127.52L140.55 119.397C145.015 113.304 140.446 108.014 127.333 107.995C113.529 107.974 103.418 112.838 99.1386 119.336L69.1875 164.824C64.9085 172.778 68.6007 176.207 82.4045 176.227C95.5179 176.246 106.318 171.384 110.597 164.886L115.946 156.762L157.356 156.822L128.473 200.686C117.535 218.556 83.9919 233.041 46.032 232.477C8.07218 231.931 -7.52407 218.374 4.2427 200.504L81.2628 83.5358C93.0295 65.6655 125.744 53.0599 164.313 53.6054C201.663 54.1696 217.262 67.5239 205.495 83.7182L176.612 127.58Z" fill="#FBF3E7"/>
</g>
<defs>
<clipPath id="clip0_10729_41324">
<rect width="1200" height="233.229" fill="white"/>
</clipPath>
</defs>
</svg>
